<mxfile host="app.diagrams.net" modified="2023-11-16T14:29:51.439Z" agent="Mozilla/5.0 (X11; Ubuntu; Linux x86_64; rv:109.0) Gecko/20100101 Firefox/113.0" version="22.1.1" etag="HseWoXgl-MUGP5q6PmgK" type="github">
  <diagram name="Page-1" id="6x63ZEs6PNrOrkXLLmVH">
    <mxGraphModel>
      <root>
        <mxCell id="0" />
        <mxCell id="1" parent="0" />
      </root>
    </mxGraphModel>
  </diagram>
</mxfile>
